<?xml version="1.0" encoding="UTF-8"?>
<svg xmlns="http://www.w3.org/2000/svg" version="1.1" viewBox="0 0 11 14">
    <!-- Generator: Adobe Illustrator 29.1.0, SVG Export Plug-In . SVG Version: 2.1.0 Build 142)  -->
    <defs>
        <style>
            .st0 {
            fill: #253f57;
            }

            .st1 {
            fill: #162c42;
            }
        </style>
    </defs>
    <g id="main" shape-rendering="crispEdges">
        <rect class="st0" y="8" width="7" height="2"/>
        <polygon class="st0" points="11 2 11 0 0 0 0 2 0 8 0 10 7 10 7 8 2 8 2 2 11 2"/>
        <polygon class="st0" points="4 4 4 6 9 6 9 12 0 12 0 14 9 14 11 14 11 6 11 4 4 4"/>
        <polygon class="st1" points="9 3 9 2 4 2 2 2 2 6 2 8 7 8 7 10 2 10 2 11 0 11 0 12 2 12 9 12 9 10 9 6 7 6 4 6 4 4 9 4 10 4 10 3 9 3"/>
    </g>
</svg>