<?xml version="1.0" encoding="UTF-8"?>
<svg id="discord" xmlns="http://www.w3.org/2000/svg" viewBox="0 0 300 300">
    <defs>
        <style>
            .cls-1 {
            fill: #fff;
            }

            .cls-1, .cls-2, .cls-3 {
            stroke-width: 0px;
            }

            .cls-2 {
            fill: #169345;
            }

            .cls-3 {
            fill: #006837;
            }
        </style>
    </defs>
    <g>
        <ellipse class="cls-2" cx="150" cy="150" rx="133" ry="133.63"/>
        <path class="cls-3"
              d="m150,23.87c33.51,0,65.01,13.11,88.72,36.92,23.72,23.83,36.78,55.51,36.78,89.21s-13.06,65.39-36.78,89.21c-23.7,23.81-55.21,36.92-88.72,36.92s-65.01-13.11-88.72-36.92c-23.72-23.83-36.78-55.51-36.78-89.21s13.06-65.39,36.78-89.21c23.7-23.81,55.21-36.92,88.72-36.92m0-15C72.41,8.87,9.5,72.06,9.5,150s62.9,141.13,140.5,141.13,140.5-63.19,140.5-141.13S227.59,8.87,150,8.87h0Z"/>
    </g>
    <path class="cls-1"
          d="m182.77,211.32c14.79-5.19,27.44-13.54,37.77-25.35-.12.07-.25.13-.36.21-6.98,5.2-14.48,9.49-22.52,12.82-5.79,2.4-11.77,4.25-17.89,5.61-4.69,1.04-9.43,1.78-14.22,2.3-6.5.71-13.02.95-19.54.73-4.27-.15-8.55-.5-12.81-.9-6.03-.57-11.95-1.75-17.79-3.32-8.42-2.26-16.44-5.48-24.05-9.74-4.03-2.25-7.89-4.77-11.58-7.53-.09-.06-.18-.12-.3-.13,10.34,11.77,22.98,20.12,37.83,25.33-.78,1.05-1.53,2.06-2.28,3.06-1.56,2.07-3.13,4.14-4.67,6.22-.23.31-.44.41-.82.4-3.73-.12-7.41-.64-11.08-1.33-7.71-1.45-15.13-3.81-22.21-7.21-8.22-3.95-15.53-9.15-21.83-15.74-.38-.4-.69-.89-1.13-1.22-.94-.72-1.02-1.64-.92-2.71.29-3.14.48-6.28.79-9.41.33-3.26.71-6.52,1.16-9.77.53-3.82,1.07-7.63,1.77-11.42.86-4.68,1.79-9.34,2.85-13.98,2.08-9.13,4.78-18.08,8.1-26.83,2.96-7.81,6.39-15.4,10.57-22.66,1.2-2.09,3-3.32,4.87-4.57,8.41-5.62,17.48-9.88,27.21-12.66,4.22-1.2,8.52-2.05,12.89-2.53.58-.06.91.07,1.17.65.53,1.21,1.16,2.38,1.79,3.64-7.83,1.77-15.28,4.35-22.33,8.07-7.06,3.72-13.39,8.45-19.22,13.9.25-.12.5-.22.75-.35,6.31-3.21,12.66-6.33,19.27-8.89,7.28-2.81,14.73-5.03,22.45-6.23,4.11-.64,8.25-1.24,12.39-1.54,4.56-.32,9.14-.33,13.71-.36,2.77-.02,5.55.11,8.31.32,2.96.22,5.92.54,8.86.94,5.07.68,10.07,1.74,15,3.11,9.64,2.67,18.73,6.66,27.62,11.18,1.2.61,2.41,1.2,3.62,1.79.01,0,.04-.01.06-.02-1.42-2.19-13.96-11.22-19.15-13.88-7.09-3.63-14.59-6.1-22.4-8.05.37-.75.73-1.45,1.08-2.15.21-.42.41-.84.62-1.25.5-.99.49-.97,1.61-.86,7.68.78,15.02,2.84,22.13,5.78,7.38,3.06,14.32,6.9,20.76,11.62.28.2.52.48.71.77,3.25,5.14,5.9,10.59,8.32,16.16,5.15,11.91,9.03,24.23,11.82,36.89,1.19,5.4,2.22,10.84,3.15,16.29.7,4.08,1.17,8.2,1.66,12.31.4,3.39.71,6.79,1.02,10.19.15,1.61.24,3.23.3,4.85.01.31-.12.71-.32.94-7.3,8.26-16.1,14.43-26.16,18.87-6.12,2.7-12.48,4.63-19.03,5.91-3.85.75-7.73,1.33-11.67,1.41-.23,0-.56-.07-.69-.23-2.33-3.07-4.64-6.16-6.95-9.25-.02-.03-.03-.08-.07-.21Zm-46.01-51.83c-.13-1.37-.15-2.75-.39-4.1-.81-4.41-2.78-8.2-6.32-11.06-3.1-2.5-6.66-3.6-10.6-3.1-4.53.57-7.99,2.99-10.53,6.72-2.72,3.99-3.69,8.43-3.15,13.21.54,4.71,2.45,8.75,6.07,11.89,6.29,5.46,15.22,4.54,20.59-1.99,2.76-3.36,4.07-7.26,4.35-11.58Zm57.61-.58c0-.51.01-1.02,0-1.53,0-.26-.07-.53-.1-.79-.5-4.35-2.2-8.13-5.33-11.23-2.34-2.32-5.15-3.78-8.42-4.14-4.5-.49-8.39.95-11.63,4.08-3.04,2.94-4.76,6.57-5.3,10.75-.81,6.23.73,11.77,5.21,16.27,5.78,5.81,14.56,5.73,20.34-.12,3.62-3.67,5.2-8.19,5.25-13.29Z"/>
</svg>