<?xml version="1.0" encoding="UTF-8"?>
<svg id="adobe" xmlns="http://www.w3.org/2000/svg" viewBox="0 0 300 300">
    <defs>
        <style>
            .cls-1 {
            fill: #fff;
            }

            .cls-1, .cls-2, .cls-3 {
            stroke-width: 0px;
            }

            .cls-2 {
            fill: #169345;
            }

            .cls-3 {
            fill: #006837;
            }
        </style>
    </defs>
    <g>
        <ellipse class="cls-2" cx="150" cy="150" rx="133" ry="133.63"/>
        <path class="cls-3"
              d="m150,23.87c33.51,0,65.01,13.11,88.72,36.92,23.72,23.83,36.78,55.51,36.78,89.21s-13.06,65.39-36.78,89.21c-23.7,23.81-55.21,36.92-88.72,36.92s-65.01-13.11-88.72-36.92c-23.72-23.83-36.78-55.51-36.78-89.21s13.06-65.39,36.78-89.21c23.7-23.81,55.21-36.92,88.72-36.92m0-15C72.41,8.87,9.5,72.06,9.5,150s62.9,141.13,140.5,141.13,140.5-63.19,140.5-141.13S227.59,8.87,150,8.87h0Z"/>
    </g>
    <path class="cls-1" d="m174.97,153.52l-24.86-60.72-25.3,60.72-12.98,31.02-11.44,27.72h-38.5L130.97,58.26h38.5l68.64,154h-38.94l-11.44-27.72-12.76-31.02Z"/>
    <polygon class="cls-1" points="150.84 184.54 100.39 184.54 100.39 212.26 160.84 212.26 150.84 184.54"/>
</svg>