<?xml version="1.0" encoding="UTF-8"?>
<svg id="linkedin" xmlns="http://www.w3.org/2000/svg" viewBox="0 0 300 300">
  <defs>
    <style>
      .cls-1 {
        fill: #fff;
      }

      .cls-1, .cls-2, .cls-3 {
        stroke-width: 0px;
      }

      .cls-2 {
        fill: #169345;
      }

      .cls-3 {
        fill: #006837;
      }
    </style>
  </defs>
  <g>
    <rect class="cls-2" x="17.5" y="17.5" width="265" height="265"/>
    <path class="cls-3" d="m275,25v250H25V25h250m15-15H10v280h280V10h0Z"/>
  </g>
  <g>
    <path class="cls-1" d="m161.08,135.82c7.36-10.42,15.57-17.12,27.14-19.04,25.48-4.22,47.55,7.35,53.65,35.41,1.48,6.82,2.05,13.77,2.03,20.78-.08,20.82-.12,41.64.06,62.46.03,3.57-1,4.44-4.46,4.37-10.49-.23-20.98-.23-31.47,0-3.49.07-4.47-.92-4.44-4.42.17-19.32.09-38.64.07-57.96,0-5.65-.32-11.31-2.14-16.71-3.21-9.57-9.93-13.63-20.86-12.8-8.76.66-17.01,8.03-18.69,16.73-.6,3.1-.93,6.22-.92,9.41.06,20.32-.05,40.64.11,60.96.03,3.51-.51,4.94-4.52,4.82-10.48-.33-20.98-.21-31.47-.05-3.09.05-4.26-.56-4.25-4.02.14-37.81.13-75.62.04-113.42,0-2.92.89-3.55,3.63-3.52,10.99.15,21.98.16,32.97,0,2.84-.04,3.73.78,3.57,3.6-.23,3.95-.06,7.92-.06,13.41Z"/>
    <path class="cls-1" d="m99,179.51c0,18.64-.1,37.27.09,55.91.03,3.54-.96,4.45-4.43,4.37-10.64-.23-21.3-.2-31.94,0-3.1.06-3.9-.85-3.89-3.91.1-37.77.11-75.55-.02-113.32-.01-3.24,1.02-3.8,3.94-3.75,10.65.17,21.3.22,31.94-.02,3.45-.08,4.43.76,4.4,4.32-.19,18.8-.09,37.61-.09,56.41Z"/>
    <path class="cls-1" d="m78.35,102.07c-12.84-.04-22.44-9.14-22.19-21.03.25-11.88,9.89-20.65,22.79-20.75,13.01-.1,22.7,9.06,22.6,21.34-.11,12.27-9.43,20.48-23.2,20.44Z"/>
  </g>
</svg>