<?xml version="1.0" encoding="UTF-8"?>
<svg id="mysql" xmlns="http://www.w3.org/2000/svg" viewBox="0 0 300 300">
  <defs>
    <style>
      .cls-1 {
        fill: #fff;
      }

      .cls-1, .cls-2, .cls-3 {
        stroke-width: 0px;
      }

      .cls-2 {
        fill: #169345;
      }

      .cls-3 {
        fill: #006837;
      }
    </style>
  </defs>
  <g>
    <rect class="cls-3" x="39.22" y="71.34" width="221.55" height="169.32"/>
    <path class="cls-3" d="m253.28,78.84v154.32H46.72V78.84h206.55m15-15H31.72v184.32h236.55V63.84h0Z"/>
  </g>
  <g>
    <ellipse class="cls-2" cx="150" cy="64.47" rx="110.78" ry="42.1"/>
    <path class="cls-3" d="m150,29.87c29.65,0,57.29,4.74,77.83,13.36,17.58,7.37,25.44,15.98,25.44,21.24s-7.87,13.87-25.44,21.24c-20.54,8.61-48.19,13.36-77.83,13.36s-57.29-4.74-77.83-13.36c-17.58-7.37-25.44-15.98-25.44-21.24s7.87-13.87,25.44-21.24c20.54-8.62,48.19-13.36,77.83-13.36m0-15c-65.32,0-118.28,22.21-118.28,49.6s52.95,49.6,118.28,49.6,118.28-22.21,118.28-49.6S215.32,14.87,150,14.87h0Z"/>
  </g>
  <ellipse class="cls-3" cx="150" cy="249.8" rx="118.28" ry="34.18"/>
  <g>
    <path class="cls-1" d="m47.85,205.05l8.5-11.9c6.2,4.87,13.43,7.3,21.7,7.3,4.13,0,7.42-.7,9.85-2.1,2.43-1.4,3.65-3.3,3.65-5.7,0-2.27-1.13-4.03-3.4-5.3-2.27-1.27-5.87-2.17-10.8-2.7-9.53-1.07-16.52-3.3-20.95-6.7-4.43-3.4-6.65-8.27-6.65-14.6,0-4.27,1.2-8.03,3.6-11.3,2.4-3.27,5.77-5.8,10.1-7.6,4.33-1.8,9.33-2.7,15-2.7,4.87,0,9.62.7,14.25,2.1,4.63,1.4,8.72,3.37,12.25,5.9l-7.7,11.5c-5.47-3.8-11.5-5.7-18.1-5.7-4.07,0-7.32.67-9.75,2-2.43,1.33-3.65,3.13-3.65,5.4s1.05,3.9,3.15,5.1c2.1,1.2,5.62,2.1,10.55,2.7,9.47,1.07,16.54,3.42,21.2,7.05,4.67,3.63,7,8.62,7,14.95,0,4.4-1.23,8.28-3.7,11.65-2.47,3.37-5.93,5.97-10.4,7.8-4.47,1.83-9.6,2.75-15.4,2.75s-11.25-.87-16.55-2.6c-5.3-1.73-9.88-4.17-13.75-7.3Z"/>
    <path class="cls-1" d="m171.15,210.75c-5.53,2.87-11.97,4.3-19.3,4.3s-14.15-1.52-19.85-4.55c-5.7-3.03-10.1-7.32-13.2-12.85-3.1-5.53-4.65-11.97-4.65-19.3s1.55-13.77,4.65-19.3c3.1-5.53,7.5-9.82,13.2-12.85,5.7-3.03,12.32-4.55,19.85-4.55s14.15,1.52,19.85,4.55c5.7,3.03,10.1,7.32,13.2,12.85,3.1,5.53,4.65,11.97,4.65,19.3,0,8.47-2.07,15.7-6.2,21.7l8.9,9-11.4,11.3-9.7-9.6Zm-.65-20.8c1.77-3.33,2.65-7.2,2.65-11.6s-.88-8.27-2.65-11.6c-1.77-3.33-4.27-5.92-7.5-7.75-3.23-1.83-6.95-2.75-11.15-2.75s-7.9.92-11.1,2.75c-3.2,1.83-5.68,4.42-7.45,7.75-1.77,3.33-2.65,7.2-2.65,11.6s.88,8.27,2.65,11.6c1.77,3.33,4.25,5.92,7.45,7.75,3.2,1.83,6.9,2.75,11.1,2.75s7.92-.92,11.15-2.75c3.23-1.83,5.73-4.42,7.5-7.75Z"/>
    <path class="cls-1" d="m216.95,143.35v55.2h35.2v14.8h-51.6v-70h16.4Z"/>
  </g>
</svg>