<?xml version="1.0" encoding="UTF-8"?>
<svg id="unity" xmlns="http://www.w3.org/2000/svg" viewBox="0 0 300 300">
    <defs>
        <style>
            .cls-1 {
            fill: #006837;
            }

            .cls-1, .cls-2, .cls-3 {
            stroke-width: 0px;
            }

            .cls-2 {
            fill: #169345;
            }

            .cls-3 {
            fill: #fff;
            }
        </style>
    </defs>
    <g>
        <path class="cls-2" d="M150,283.63c-73.33,0-133-59.95-133-133.63S76.67,16.37,150,16.37s133,59.95,133,133.63-59.66,133.63-133,133.63Z"/>
        <path class="cls-1"
              d="M150,23.87c33.51,0,65.01,13.11,88.72,36.92,23.72,23.83,36.78,55.51,36.78,89.21s-13.06,65.39-36.78,89.21c-23.7,23.81-55.21,36.92-88.72,36.92s-65.01-13.11-88.72-36.92c-23.72-23.83-36.78-55.51-36.78-89.21s13.06-65.39,36.78-89.21c23.7-23.81,55.21-36.92,88.72-36.92M150,8.87C72.41,8.87,9.5,72.06,9.5,150s62.9,141.13,140.5,141.13,140.5-63.19,140.5-141.13S227.59,8.87,150,8.87h0Z"/>
    </g>
    <path class="cls-3"
          d="M134.68,181.78c0-.53,0-.9,0-1.26,0-9.28.02-18.56-.02-27.84,0-1.11.25-1.5,1.44-1.5,32.47.03,64.93.03,97.4,0,1.15,0,1.48.31,1.48,1.47-.04,11.72.12,23.45-.09,35.17-.11,5.78-1.53,11.39-3.87,16.74-1.7,3.9-3.87,7.48-6.42,10.87-2.91,3.87-6.31,7.22-10.2,10.06-5.27,3.84-11.07,6.65-17.45,8.03-3.45.75-7,1.38-10.51,1.39-24.46.12-48.93.09-73.39.04-5.75-.01-11.29-1.26-16.62-3.44-4.82-1.97-9.22-4.65-13.24-7.9-3.52-2.85-6.59-6.17-9.17-9.9-3.73-5.4-6.44-11.26-7.78-17.68-.6-2.86-1.14-5.79-1.15-8.7-.09-23.98-.03-47.97-.07-71.95,0-4.73.55-9.38,1.81-13.91,1.72-6.24,4.65-11.91,8.67-17,5.16-6.53,11.48-11.6,19.08-15.01,4.08-1.83,8.32-3.19,12.78-3.74,2.59-.32,5.21-.77,7.81-.71,7.13.17,14.06,1.4,20.61,4.42,4.43,2.04,8.49,4.61,12.13,7.85,2.08,1.85,2.1,1.88,4.15.03,5.13-4.62,11.02-7.86,17.59-9.9,4.22-1.31,8.51-2.05,12.95-2.24,6.81-.3,13.37.76,19.76,3.01,4.79,1.69,9.16,4.16,13.14,7.3,6.6,5.2,11.77,11.55,15.2,19.24,1.9,4.27,3.33,8.72,3.74,13.4.33,3.76.46,7.55.51,11.33.08,5.92,0,11.85.04,17.77,0,1.04-.31,1.35-1.34,1.34-9.33-.03-18.66-.04-27.99,0-1.09,0-1.31-.39-1.31-1.38.03-7.12.06-14.25,0-21.38-.04-4.19-1.08-8.12-3.58-11.57-3.41-4.71-7.85-7.64-13.78-8.24-6.72-.67-12.3,1.54-16.76,6.47-2.79,3.09-4.52,6.81-4.64,11.01-.21,7.85-.23,15.71-.26,23.56,0,1.23-.39,1.52-1.56,1.51-9.2-.04-18.41-.04-27.61,0-1.14,0-1.49-.29-1.48-1.46.05-6.83.02-13.67.03-20.51,0-5.13-1.28-9.88-4.63-13.81-3.16-3.71-7.23-5.99-12.12-6.76-5.83-.92-10.92.85-15.35,4.45-3.48,2.83-5.7,6.6-6.43,11.08-.36,2.21-.51,4.48-.51,6.73-.04,22.04-.06,44.08.01,66.11.01,4.02.87,7.9,3.28,11.29,3.17,4.44,7.41,7.26,12.8,8.23,1.68.3,3.41.48,5.12.49,22.31.03,44.62.05,66.92,0,4.37-.01,8.58-.91,12.19-3.63,4.15-3.12,7-7.1,7.87-12.3.28-1.69.34-3.41.52-5.11.12-1.2-.44-1.58-1.6-1.57-10.12.03-20.23.02-30.35.02h-37.72Z"/>
</svg>