<?xml version="1.0" encoding="UTF-8"?>
<svg id="HTML" xmlns="http://www.w3.org/2000/svg" viewBox="0 0 300 300">
  <defs>
    <style>
      .cls-1 {
        fill: #fff;
      }

      .cls-1, .cls-2, .cls-3 {
        stroke-width: 0px;
      }

      .cls-2 {
        fill: #169345;
      }

      .cls-3 {
        fill: #006837;
      }
    </style>
  </defs>
  <g>
    <polygon class="cls-2" points="44.58 231.44 22.75 14.17 277.25 14.17 255.42 231.44 150 284.92 44.58 231.44"/>
    <path class="cls-3" d="m268.96,21.67l-20.59,204.94-98.37,49.9-98.37-49.9L31.04,21.67h237.91m16.58-15H14.46l23.07,229.61,112.47,57.05,112.47-57.05L285.54,6.67h0Z"/>
  </g>
  <polygon class="cls-3" points="150 293.33 150 6.67 14.46 6.67 37.53 236.28 150 293.33"/>
  <g>
    <path class="cls-1" d="m97.58,77.28v120.38l-10.74-2.88v-48.32l-19.57-5.24v48.32l-10.81-2.9v-120.38l10.81,2.9v46.6l19.57,5.24v-46.6l10.74,2.88Z"/>
    <path class="cls-1" d="m142.65,113.95l-14.1-3.78v95.79l-10.81-2.9v-95.79l-14.04-3.76v-24.59l38.94,10.44v24.59Z"/>
  </g>
  <g>
    <path class="cls-1" d="m201.52,75.89v120.38l-10.74,2.88v-75.32l-13.57,46.97-2.11.57-13.71-39.84v75.49l-10.74,2.88v-120.38l9.69-2.6,15.75,47.03,15.75-55.47,9.69-2.6Z"/>
    <path class="cls-1" d="m222.35,70.31v94.93l23.2-6.22v25.45l-34,9.11v-120.38l10.81-2.9Z"/>
  </g>
</svg>