<?xml version="1.0" encoding="UTF-8"?>
<svg id="github" xmlns="http://www.w3.org/2000/svg" viewBox="0 0 300 300">
    <defs>
        <style>
            .cls-1 {
            fill: #fff;
            }

            .cls-1, .cls-2, .cls-3 {
            stroke-width: 0px;
            }

            .cls-2 {
            fill: #169345;
            }

            .cls-3 {
            fill: #006837;
            }
        </style>
    </defs>
    <g>
        <rect class="cls-2" x="17.5" y="17.5" width="265" height="265"/>
        <path class="cls-3" d="m275,25v250H25V25h250m15-15H10v280h280V10h0Z"/>
    </g>
    <path class="cls-1"
          d="m169.84,202.9c5.71-1.28,11.08-2.08,16.18-3.7,23.11-7.36,30.88-23.4,32.83-45.6,1.1-12.47-1.37-24.16-9.64-34.06-1.54-1.84-1.05-3.82-.56-5.59,1.77-6.44,1.4-12.76-.08-19.2-1.62-7.06-3.32-8.38-10.3-6.33-6.78,1.98-13.04,5.19-18.85,9.21-1.67,1.16-3.12,1.67-5.35,1.12-16.47-4.01-33.02-3.97-49.48.06-2.61.64-3.95-.58-5.78-1.63-7.25-4.18-14.26-8.9-23.09-9.24-2.78-.11-4.14.71-4.8,3.55-1.67,7.12-2.93,14.19-.98,21.47.7,2.62.79,4.88-1.2,7.58-22.51,30.57-3.59,75.6,33.82,80.91,1.93.27,3.82.87,6.04,1.4-2.22,4.19-5.28,7.87-5.46,12.78-.08,2.12-2.12,2.7-3.75,3.24-10.48,3.44-21.26,1.81-27.84-9.58-3.58-6.2-8.62-10.59-15.65-12.42-2.38-.62-5.21-.66-6.26,1.73-.88,1.99,1.54,3.53,3.11,4.47,6.25,3.73,9.64,9.58,12.44,15.92,5.91,13.41,16.81,19.42,31.16,16.86,4.13-.74,6.62-.66,5.97,4.71-.48,3.87-.03,7.85-.07,11.79-.07,6.46-2.75,8.35-9.01,6.2-18.23-6.26-33.5-16.98-45.78-31.67-24.34-29.12-32.18-62.76-24.02-99.47,9.97-44.87,47.18-78.09,90.12-84.49,55.36-8.25,107.67,27.22,121.44,82.79,13.55,54.67-13.71,110.49-66.12,131.72-1.62.66-3.25,1.37-4.95,1.78-4.48,1.07-7.27-1-7.33-5.67-.11-9.04-.13-18.09.04-27.13.16-8.4-1.07-16.35-6.8-23.49Z"/>
</svg>