<?xml version="1.0" encoding="UTF-8"?>
<svg id="JS" xmlns="http://www.w3.org/2000/svg" viewBox="0 0 300 300">
  <defs>
    <style>
      .cls-1 {
        fill: #fff;
      }

      .cls-1, .cls-2, .cls-3 {
        stroke-width: 0px;
      }

      .cls-2 {
        fill: #169345;
      }

      .cls-3 {
        fill: #006837;
      }
    </style>
  </defs>
  <g>
    <polygon class="cls-2" points="44.58 231.44 22.75 14.17 277.25 14.17 255.42 231.44 150 284.92 44.58 231.44"/>
    <path class="cls-3" d="m268.96,21.67l-20.59,204.94-98.37,49.9-98.37-49.9L31.04,21.67h237.91m16.58-15H14.46l23.07,229.61,112.47,57.05,112.47-57.05L285.54,6.67h0Z"/>
  </g>
  <polygon class="cls-3" points="150 293.33 150 6.67 14.46 6.67 37.53 236.28 150 293.33"/>
  <path class="cls-1" d="m140.07,157.19c0,10.48-1.75,19.12-5.27,25.9-3.51,6.78-8.51,11.4-14.98,13.86-6.48,2.46-14,2.54-22.58.24-13.32-3.57-23.7-10.82-31.13-21.75-7.44-10.93-11.2-24.57-11.29-40.93l21.89,5.87c.09,8.74,1.92,15.93,5.47,21.58,3.56,5.64,8.58,9.33,15.05,11.07s11.38.65,14.98-3.19c3.6-3.83,5.41-10.17,5.41-18.99v-42.87l-27.91-7.48v-23.5l50.35,13.49v66.7Z"/>
  <path class="cls-1" d="m157.35,192.16l11.63-22.81c8.48,5.78,18.38,7.16,29.69,4.13,5.66-1.52,10.15-3.88,13.48-7.09,3.33-3.21,4.99-6.8,4.99-10.77,0-3.75-1.55-6.26-4.65-7.53-3.1-1.27-8.03-1.44-14.78-.51-13.05,1.73-22.6.59-28.67-3.41-6.07-4-9.1-11.24-9.1-21.73,0-7.06,1.64-13.74,4.92-20.02,3.28-6.29,7.89-11.71,13.82-16.28,5.93-4.57,12.77-7.89,20.52-9.97,6.66-1.78,13.16-2.37,19.5-1.75,6.34.62,11.93,2.38,16.76,5.27l-10.54,21.86c-7.48-4.29-15.73-5.22-24.77-2.8-5.56,1.49-10.01,3.79-13.34,6.89-3.33,3.1-4.99,6.52-4.99,10.28s1.44,6.07,4.31,7.29c2.87,1.22,7.69,1.42,14.44.6,12.95-1.71,22.62-.41,29.01,3.9,6.39,4.3,9.58,11.7,9.58,22.18,0,7.28-1.69,14.16-5.06,20.64-3.38,6.48-8.12,12.05-14.23,16.72-6.11,4.67-13.14,8.07-21.07,10.2-7.84,2.1-15.39,2.69-22.65,1.76-7.25-.93-13.52-3.27-18.81-7.04Z"/>
</svg>