<?xml version="1.0" encoding="UTF-8"?>
<svg id="git" xmlns="http://www.w3.org/2000/svg" viewBox="0 0 300 300">
  <defs>
    <style>
      .cls-1 {
        fill: #fff;
      }

      .cls-1, .cls-2, .cls-3 {
        stroke-width: 0px;
      }

      .cls-2 {
        fill: #169345;
      }

      .cls-3 {
        fill: #006837;
      }
    </style>
  </defs>
  <g>
    <ellipse class="cls-2" cx="150" cy="150" rx="133" ry="133.63"/>
    <path class="cls-3" d="m150,23.87c33.51,0,65.01,13.11,88.72,36.92,23.72,23.83,36.78,55.51,36.78,89.21s-13.06,65.39-36.78,89.21c-23.7,23.81-55.21,36.92-88.72,36.92s-65.01-13.11-88.72-36.92c-23.72-23.83-36.78-55.51-36.78-89.21s13.06-65.39,36.78-89.21c23.7-23.81,55.21-36.92,88.72-36.92m0-15C72.41,8.87,9.5,72.06,9.5,150s62.9,141.13,140.5,141.13,140.5-63.19,140.5-141.13S227.59,8.87,150,8.87h0Z"/>
  </g>
  <path class="cls-1" d="m132.96,223.27l19.98-.91-3.98-87.68,50.16,29.75,10.2-17.2-65.39-38.78-69.94-58.83c-4.44,3.41-8.68,7.13-12.7,11.17-.77.78-1.54,1.57-2.29,2.36l69.33,58.32,4.63,101.81Z"/>
  <circle class="cls-1" cx="141.92" cy="221.47" r="24.27"/>
  <circle class="cls-1" cx="202.73" cy="155.54" r="24.27"/>
  <circle class="cls-1" cx="141.92" cy="123.18" r="24.27"/>
</svg>