<?xml version="1.0" encoding="UTF-8"?>
<svg id="Csharp" xmlns="http://www.w3.org/2000/svg" viewBox="0 0 300 300">
    <defs>
        <style>
            .cls-1 {
            fill: #fff;
            }

            .cls-1, .cls-2, .cls-3 {
            stroke-width: 0px;
            }

            .cls-2 {
            fill: #169345;
            }

            .cls-3 {
            fill: #006837;
            }
        </style>
    </defs>
    <g>
        <polygon class="cls-2" points="31.49 218.42 31.49 81.58 150 13.16 268.51 81.58 268.51 218.42 150 286.84 31.49 218.42"/>
        <path class="cls-3" d="m150,21.82l111.01,64.09v128.18l-111.01,64.09-111.01-64.09V85.91L150,21.82m0-17.32L23.99,77.25v145.5l126.01,72.75,126.01-72.75V77.25L150,4.5h0Z"/>
    </g>
    <polygon class="cls-3" points="276.01 222.75 276.01 77.25 23.99 222.75 150 295.5 276.01 222.75"/>
    <path class="cls-1"
          d="m202.7,180.43c-4.21,6.55-11.37,13.75-18.21,17.63-7.89,4.47-16.94,6.75-27.12,6.85-10.19-.11-19.24-2.38-27.12-6.85-8.08-4.58-14.33-11.04-18.75-19.38s-6.62-17.92-6.62-28.75,2.21-20.42,6.62-28.75,10.67-14.79,18.75-19.38c7.89-4.47,16.94-6.75,27.12-6.85,10.19.11,19.24,2.38,27.12,6.85,6.88,3.9,14.52,10.85,18.75,17.46l35.34-20.42c-7.5-11.46-19.59-22.19-32.09-28.92-14.1-7.59-30.45-11.41-49.03-11.49-.12,0-.23,0-.34,0-.04,0-.08,0-.12,0-.04,0-.08,0-.13,0-.13,0-.26,0-.39,0-1.34,0-2.66.04-3.98.09-.33.01-.67.02-1,.04-15.89.71-30.19,4.45-42.88,11.24-14.17,7.58-25.21,18.33-33.12,32.25-7.92,13.92-11.88,29.88-11.88,47.88s3.88,33.92,11.62,47.75,18.75,24.58,33,32.25c14.1,7.59,30.45,11.41,49.03,11.49.12,0,.23,0,.34,0,.04,0,.08,0,.12,0,.04,0,.08,0,.13,0,.13,0,.26,0,.39,0,1.34,0,2.66-.04,3.98-.09.33-.01.67-.02,1-.04,15.89-.71,30.19-4.45,42.88-11.24,12.45-6.67,24.13-17.76,31.75-29.32l-35.17-20.31Z"/>
    <path class="cls-1"
          d="m246.49,144.3l-3.07,12.38h5.4v9.52h-7.72l-2.48,10.05h-11.25l2.47-10.05h-7.95l-2.48,10.05h-11.17l2.47-10.05h-5.4v-9.52h7.72l3-12.38h-5.7v-9.52h8.02l2.7-11.02h11.17l-2.7,11.02h8.1l2.7-11.02h11.17l-2.7,11.02h5.02v9.52h-7.35Zm-11.02-.15h-8.4l-3.08,12.67h8.4l3.08-12.67Z"/>
</svg>