<?xml version="1.0" encoding="UTF-8"?>
<svg id="unity" xmlns="http://www.w3.org/2000/svg" viewBox="0 0 300 300">
  <defs>
    <style>
      .cls-1 {
        fill: #fff;
      }

      .cls-1, .cls-2, .cls-3 {
        stroke-width: 0px;
      }

      .cls-2 {
        fill: #169345;
      }

      .cls-3 {
        fill: #006837;
      }
    </style>
  </defs>
  <g>
    <ellipse class="cls-2" cx="150" cy="150" rx="133" ry="133.63"/>
    <path class="cls-3" d="m150,23.87c33.51,0,65.01,13.11,88.72,36.92,23.72,23.83,36.78,55.51,36.78,89.21s-13.06,65.39-36.78,89.21c-23.7,23.81-55.21,36.92-88.72,36.92s-65.01-13.11-88.72-36.92c-23.72-23.83-36.78-55.51-36.78-89.21s13.06-65.39,36.78-89.21c23.7-23.81,55.21-36.92,88.72-36.92m0-15C72.41,8.87,9.5,72.06,9.5,150s62.9,141.13,140.5,141.13,140.5-63.19,140.5-141.13S227.59,8.87,150,8.87h0Z"/>
  </g>
  <path class="cls-1" d="m157.47,88.03l30.56,17.63c1.1.62,1.14,2.34,0,2.96l-36.31,20.97c-1.05.62-2.36.62-3.41,0l-36.31-20.97c-1.12-.6-1.14-2.36,0-2.96l30.54-17.64v-34.53l-77.97,45.02v90.03l29.9-17.25v-35.27c-.02-1.26,1.46-2.16,2.56-1.48l36.31,20.97c1.06.61,1.71,1.73,1.72,2.96v41.92c.02,1.26-1.46,2.16-2.56,1.48l-30.56-17.63-29.9,17.26,77.97,45.02,77.97-45.02-29.9-17.26-30.56,17.63c-1.08.66-2.6-.2-2.56-1.48v-41.92c0-1.26.7-2.38,1.72-2.96l36.31-20.97c1.08-.66,2.6.18,2.56,1.48v35.27l29.9,17.25v-90.03l-77.97-45.02v34.53Z"/>
</svg>