<?xml version="1.0" encoding="UTF-8"?>
<svg id="mail" xmlns="http://www.w3.org/2000/svg" viewBox="0 0 300 300">
  <defs>
    <style>
      .cls-1 {
        fill: #169345;
      }

      .cls-1, .cls-2 {
        stroke-width: 0px;
      }

      .cls-3 {
        fill: #fff;
        stroke: #169345;
        stroke-miterlimit: 10;
        stroke-width: 5px;
      }

      .cls-2 {
        fill: #006837;
      }
    </style>
  </defs>
  <g>
    <rect class="cls-1" x="17.5" y="17.5" width="265" height="265"/>
    <path class="cls-2" d="m275,25v250H25V25h250m15-15H10v280h280V10h0Z"/>
  </g>
  <g>
    <path class="cls-3" d="m121.4,153.8c6.79,6.78,13.57,13.57,20.36,20.36,4.57,4.57,11.98,4.57,16.55.01,7.18-7.17,14.37-14.33,21.54-21.5,23.06-23.06,46.12-46.12,69.18-69.18.17-.17.37-.3.47-.55-.07-.06-.13-.13-.21-.19-3.59-2.68-7.6-4.17-12.09-4.17-57.96-.01-115.93,0-173.9-.01-2.22,0-4.37.32-6.47,1.01-2.29.74-4.37,1.87-6.39,3.44.26.21.5.37.69.57,23.42,23.41,46.84,46.81,70.26,70.22Z"/>
    <path class="cls-3" d="m185.49,154.07c-7.88,7.89-15.76,15.78-23.65,23.65-2.94,2.93-6.51,4.57-10.64,4.83-5.05.32-9.44-1.31-13.04-4.9-7.88-7.86-15.74-15.73-23.61-23.6-.18-.18-.34-.4-.52-.49-21.15,21.15-42.28,42.28-63.42,63.42-.01-.02,0,.02.04.06.03.04.07.06.11.09,3.59,2.67,7.6,4.17,12.09,4.17,57.99.01,115.99,0,173.98.01,3.46,0,6.7-.81,9.75-2.43,1.03-.55,2.02-1.16,2.88-1.89-21.15-21.15-42.28-42.28-63.51-63.51-.13.17-.27.4-.45.59Z"/>
    <path class="cls-3" d="m109.75,149.24c-20.73-20.73-41.46-41.46-62.19-62.19-.17-.17-.3-.37-.45-.58-.18.12-.23.14-.25.18-2.7,3.57-4.23,7.57-4.24,12.07-.02,26.81,0,53.62-.01,80.43,0,7.19,0,14.37-.01,21.56,0,3.71.94,7.16,2.81,10.37.47.8.97,1.58,1.67,2.4.19-.25.33-.48.51-.67,20.73-20.73,41.46-41.46,62.18-62.19q.67-.67-.02-1.37Z"/>
    <path class="cls-3" d="m257.48,99.15c0-4.53-1.4-8.62-4.09-12.27-.09-.12-.15-.31-.48-.29-.08.1-.21.27-.36.42-20.8,20.8-41.59,41.6-62.39,62.4-.61.61-.6.46.01,1.07,20.78,20.78,41.56,41.56,62.34,62.34.17.17.31.37.58.49.06-.05.11-.08.13-.11,2.72-3.56,4.24-7.59,4.24-12.07.03-34,.02-67.99.01-101.99Z"/>
  </g>
</svg>