<?xml version="1.0" encoding="UTF-8"?>
<svg id="unity" xmlns="http://www.w3.org/2000/svg" viewBox="0 0 300 300">
    <defs>
        <style>
            .cls-1 {
            fill: #fff;
            }

            .cls-2 {
            fill: #006837;
            }

            .cls-3 {
            fill: #169345;
            }
        </style>
    </defs>
    <g>
        <ellipse class="cls-3" cx="150" cy="150" rx="133" ry="133.63"/>
        <path class="cls-2"
              d="m150,23.87c33.51,0,65.01,13.11,88.72,36.92,23.72,23.83,36.78,55.51,36.78,89.21s-13.06,65.39-36.78,89.21c-23.7,23.81-55.21,36.92-88.72,36.92s-65.01-13.11-88.72-36.92c-23.72-23.83-36.78-55.51-36.78-89.21s13.06-65.39,36.78-89.21c23.7-23.81,55.21-36.92,88.72-36.92m0-15C72.41,8.87,9.5,72.06,9.5,150s62.9,141.13,140.5,141.13,140.5-63.19,140.5-141.13S227.59,8.87,150,8.87h0Z"/>
    </g>
    <path class="cls-1"
          d="m220.41,150.45h0l-70.41-70.41v70.41h70.41l-70.41,70.4-70.4-70.4,70.4-70.41v-34.7c-58.05,0-105.1,47.06-105.1,105.1,0,0,0,0,0,0h0c.5,58.05,47.96,104.7,106.01,104.2,57.34-.49,103.71-46.86,104.2-104.2h-34.7Z"/>
</svg>