<?xml version="1.0" encoding="UTF-8"?>
<svg id="unity" xmlns="http://www.w3.org/2000/svg" viewBox="0 0 300 300">
    <defs>
        <style>
            .cls-1 {
            fill: #fff;
            }

            .cls-2 {
            fill: #006837;
            }

            .cls-3 {
            fill: #169345;
            }
        </style>
    </defs>
    <g>
        <ellipse class="cls-3" cx="150" cy="150" rx="133" ry="133.63"/>
        <path class="cls-2"
              d="m150,23.87c33.51,0,65.01,13.11,88.72,36.92,23.72,23.83,36.78,55.51,36.78,89.21s-13.06,65.39-36.78,89.21c-23.7,23.81-55.21,36.92-88.72,36.92s-65.01-13.11-88.72-36.92c-23.72-23.83-36.78-55.51-36.78-89.21s13.06-65.39,36.78-89.21c23.7-23.81,55.21-36.92,88.72-36.92m0-15C72.41,8.87,9.5,72.06,9.5,150s62.9,141.13,140.5,141.13,140.5-63.19,140.5-141.13S227.59,8.87,150,8.87h0Z"/>
    </g>
    <path class="cls-1" d="m215.53,84.47v-12.68H84.47v12.68h-12.68v131.06h12.68v12.68h131.06v-12.68h12.68V84.47h-12.68Zm-86.82,78.08h-17.68v-54.35h17.68v54.35Zm62.82,0h-17.68v-54.35h17.68v54.35Z"/>
</svg>