<?xml version="1.0" encoding="UTF-8"?>
<svg id="PHP" xmlns="http://www.w3.org/2000/svg" viewBox="0 0 300 300">
    <defs>
        <style>
            .cls-1 {
            fill: #fff;
            }

            .cls-1, .cls-2, .cls-3 {
            stroke-width: 0px;
            }

            .cls-2 {
            fill: #169345;
            }

            .cls-3 {
            fill: #006837;
            }
        </style>
    </defs>
    <g>
        <polygon class="cls-2" points="44.58 231.44 22.75 14.17 277.25 14.17 255.42 231.44 150 284.92 44.58 231.44"/>
        <path class="cls-3" d="m268.96,21.67l-20.59,204.94-98.37,49.9-98.37-49.9L31.04,21.67h237.91m16.58-15H14.46l23.07,229.61,112.47,57.05,112.47-57.05L285.54,6.67h0Z"/>
    </g>
    <polygon class="cls-3" points="150 293.33 150 6.67 14.46 6.67 37.53 236.28 150 293.33"/>
    <g>
        <path class="cls-1"
              d="m106.88,99.57c2.12,6.95,3.17,14.69,3.17,23.21s-1.06,15.69-3.17,21.51c-2.12,5.82-5.12,9.92-9,12.3-3.88,2.38-8.42,2.87-13.61,1.48l-16.45-4.41v33.28l-15.78-4.23v-117.66l32.23,8.64c5.2,1.39,9.73,4.32,13.61,8.77,3.88,4.46,6.88,10.16,9,17.12Zm-12.51,19.17c0-5.49-.98-10.12-2.93-13.9-1.96-3.77-4.6-6.11-7.94-7l-15.78-4.23v35.97l15.78,4.23c3.33.89,5.98-.02,7.94-2.75,1.96-2.73,2.93-6.83,2.93-12.33Z"/>
        <path class="cls-1" d="m150,161.72l-15.03-4.03v47.23l-15.78-4.23v-117.66l15.78,4.23v45.55l15.03,4.03v24.88Z"/>
    </g>
    <g>
        <path class="cls-1" d="m150,136.38l13.54-3.63v-45.55l15.68-4.2v117.66l-15.68,4.2v-47.23l-13.54,3.63"/>
        <path class="cls-1"
              d="m248.79,84.19c2.12,5.82,3.17,12.99,3.17,21.51s-1.06,16.25-3.17,23.21c-2.12,6.95-5.12,12.66-9,17.12-3.88,4.46-8.42,7.38-13.61,8.77l-16.45,4.41v33.28l-15.78,4.23v-117.66l32.23-8.64c5.2-1.39,9.73-.9,13.61,1.48,3.88,2.38,6.88,6.48,9,12.3Zm-12.51,25.88c0-5.49-.98-9.6-2.93-12.33-1.96-2.73-4.6-3.64-7.94-2.75l-15.78,4.23v35.97l15.78-4.23c3.33-.89,5.98-3.23,7.94-7,1.96-3.77,2.93-8.41,2.93-13.9Z"/>
    </g>
</svg>