<?xml version="1.0" encoding="UTF-8"?>
<svg id="CSS" xmlns="http://www.w3.org/2000/svg" viewBox="0 0 300 300">
    <defs>
        <style>
            .cls-1 {
            fill: #fff;
            }

            .cls-1, .cls-2, .cls-3 {
            stroke-width: 0px;
            }

            .cls-2 {
            fill: #169345;
            }

            .cls-3 {
            fill: #006837;
            }
        </style>
    </defs>
    <g>
        <polygon class="cls-2" points="44.58 231.44 22.75 14.17 277.25 14.17 255.42 231.44 150 284.92 44.58 231.44"/>
        <path class="cls-3" d="m268.96,21.67l-20.59,204.94-98.37,49.9-98.37-49.9L31.04,21.67h237.91m16.58-15H14.46l23.07,229.61,112.47,57.05,112.47-57.05L285.54,6.67h0Z"/>
    </g>
    <polygon class="cls-3" points="150 293.33 150 6.67 14.46 6.67 37.53 236.28 150 293.33"/>
    <g>
        <path class="cls-1"
              d="m101.67,167.27c-2.95,1.24-6.04,1.43-9.25.57-4.05-1.08-7.63-3.6-10.74-7.53-3.12-3.94-5.52-8.95-7.23-15.05-1.7-6.1-2.55-12.81-2.55-20.15s.85-13.59,2.55-18.78c1.7-5.18,4.11-8.91,7.23-11.18,3.12-2.27,6.7-2.86,10.74-1.78,6.04,1.62,11.21,6.61,15.51,14.99l9.73-14.49c-7.13-14.21-15.68-22.65-25.63-25.32-7-1.88-13.23-.98-18.69,2.69-5.46,3.67-9.72,9.81-12.77,18.41-3.05,8.61-4.58,19-4.58,31.18s1.49,23.36,4.48,33.52c2.99,10.17,7.23,18.58,12.72,25.24,5.49,6.66,11.87,10.97,19.13,12.91,10.28,2.75,19.05-1.05,26.31-11.4l-9.25-20.59c-2.18,3.25-4.75,5.49-7.71,6.73Z"/>
        <path class="cls-1" d="m131.06,166.01l-8.19,17.94c3.73,6.3,8.14,11.6,13.25,15.9,4.47,3.76,9.09,6.44,13.88,8.05v-24.57c-7.15-2.55-13.46-8.32-18.94-17.33Z"/>
        <path class="cls-1"
              d="m128.17,95.68c-2.31,4.91-3.47,10.97-3.47,18.19,0,10.72,2.14,19.53,6.41,26.42,4.07,6.57,10.36,11.94,18.89,16.12v-24.11c-3.05-1.77-5.33-3.61-6.84-5.54-2.02-2.57-3.04-5.72-3.04-9.45s1.17-6.57,3.52-8.2c1.7-1.18,3.83-1.65,6.36-1.42v-23.51c-4.5-.82-8.53-.42-12.09,1.22-4.18,1.93-7.42,5.35-9.73,10.25Z"/>
    </g>
    <g>
        <path class="cls-1"
              d="m153.04,106.64c6.36-1.7,12.17-.04,17.44,4.97l7.42-21.45c-3.41-3.37-7.34-5.65-11.8-6.82-4.46-1.17-9.04-1.13-13.73.13-.8.21-1.59.47-2.36.74v23.51c.95-.42,1.96-.79,3.04-1.08Z"/>
        <path class="cls-1"
              d="m153.32,132.28c-1.19.06-2.3.07-3.32.03v24.11c.43-.02.86-.04,1.3-.07,4.75-.37,8.22.22,10.41,1.78,2.18,1.56,3.28,4.25,3.28,8.09,0,4.06-1.17,7.59-3.52,10.59-2.35,3-5.51,5.03-9.49,6.1-.67.18-1.32.31-1.98.43v24.57c.69-.14,1.38-.3,2.07-.49,5.59-1.5,10.54-4.37,14.84-8.63,4.3-4.26,7.64-9.55,10.02-15.89,2.38-6.34,3.56-13.23,3.56-20.67,0-10.72-2.25-18.55-6.75-23.49-4.5-4.95-11.31-7.1-20.43-6.46Z"/>
        <path class="cls-1"
              d="m237.26,121.72c-4.5-4.95-11.31-7.1-20.43-6.46-4.75.26-8.14-.36-10.17-1.85-2.02-1.49-3.04-4.09-3.04-7.82s1.17-7.2,3.52-10.08,5.48-4.85,9.4-5.9c6.36-1.7,12.17-.04,17.44,4.97l7.42-21.45c-3.41-3.37-7.34-5.65-11.8-6.82-4.46-1.17-9.04-1.13-13.73.13-5.46,1.46-10.28,4.28-14.45,8.44-4.18,4.16-7.42,9.32-9.73,15.47-2.31,6.15-3.47,12.83-3.47,20.05,0,10.72,2.14,18.38,6.41,22.99,4.27,4.61,11,6.59,20.19,5.93,4.75-.37,8.22.22,10.41,1.78,2.18,1.56,3.28,4.25,3.28,8.09,0,4.06-1.17,7.59-3.52,10.59-2.35,3-5.51,5.03-9.49,6.1-7.97,2.13-14.94-.12-20.91-6.75l-8.19,22.33c3.73,4.3,8.14,7.24,13.25,8.8,5.11,1.56,10.42,1.61,15.95.13s10.53-4.37,14.84-8.63c4.3-4.26,7.64-9.55,10.02-15.89,2.38-6.34,3.56-13.23,3.56-20.67,0-10.72-2.25-18.55-6.75-23.49Z"/>
    </g>
</svg>