<?xml version="1.0" encoding="UTF-8"?>
<svg id="jetbrains" xmlns="http://www.w3.org/2000/svg" viewBox="0 0 300 300">
    <defs>
        <style>
            .cls-1 {
            fill: #fff;
            }

            .cls-1, .cls-2, .cls-3 {
            stroke-width: 0px;
            }

            .cls-2 {
            fill: #169345;
            }

            .cls-3 {
            fill: #006837;
            }
        </style>
    </defs>
    <g>
        <ellipse class="cls-2" cx="150" cy="150" rx="133" ry="133.63"/>
        <path class="cls-3"
              d="m150,23.87c33.51,0,65.01,13.11,88.72,36.92,23.72,23.83,36.78,55.51,36.78,89.21s-13.06,65.39-36.78,89.21c-23.7,23.81-55.21,36.92-88.72,36.92s-65.01-13.11-88.72-36.92c-23.72-23.83-36.78-55.51-36.78-89.21s13.06-65.39,36.78-89.21c23.7-23.81,55.21-36.92,88.72-36.92m0-15C72.41,8.87,9.5,72.06,9.5,150s62.9,141.13,140.5,141.13,140.5-63.19,140.5-141.13S227.59,8.87,150,8.87h0Z"/>
    </g>
    <g>
        <path class="cls-1"
              d="m88.23,86.79c0,3.17-.64,5.92-1.93,8.25s-3.11,4.13-5.47,5.4c-2.37,1.27-5.12,1.9-8.25,1.9-4.87,0-8.66-1.35-11.38-4.05s-4.09-6.52-4.12-11.45h8c.03,2.63.7,4.66,2,6.08,1.3,1.42,3.13,2.12,5.5,2.12s4.16-.73,5.48-2.17c1.32-1.45,1.97-3.51,1.97-6.18v-12.95h-10.2v-7.1h18.4v20.15Z"/>
        <path class="cls-1" d="m122.53,94.74v6.9h-27.25v-35h26.7v6.85h-18.75v7.1h17.75v6.6h-17.75v7.55h19.3Z"/>
        <path class="cls-1" d="m154.63,73.79h-10.7v27.85h-8.2v-27.85h-10.65v-7.15h29.55v7.15Z"/>
        <path class="cls-1"
              d="m90.43,151.84c0,3.07-1.18,5.47-3.53,7.2-2.35,1.73-5.59,2.6-9.73,2.6h-17.3v-35h17.3c3.77,0,6.73.83,8.9,2.5s3.25,3.93,3.25,6.8c0,1.7-.39,3.19-1.17,4.47s-1.88,2.26-3.28,2.93c1.7.73,3.05,1.86,4.05,3.38,1,1.52,1.5,3.22,1.5,5.13Zm-22.5-11.5h9.4c1.3,0,2.3-.3,3-.9.7-.6,1.05-1.45,1.05-2.55s-.36-1.96-1.08-2.58c-.72-.62-1.71-.92-2.98-.92h-9.4v6.95Zm14.45,10.45c0-1.27-.41-2.24-1.23-2.92-.82-.68-1.96-1.03-3.42-1.03h-9.8v7.9h9.8c1.47,0,2.61-.35,3.42-1.05.82-.7,1.23-1.67,1.23-2.9Z"/>
        <path class="cls-1"
              d="m104.38,150.09v11.55h-8.2v-35h17.05c2.53,0,4.75.49,6.65,1.47,1.9.98,3.37,2.38,4.4,4.18,1.03,1.8,1.55,3.87,1.55,6.2,0,2.67-.69,4.95-2.08,6.85-1.38,1.9-3.34,3.25-5.88,4.05l9.9,12.25h-9.75l-8.9-11.55h-4.75Zm7.9-16.45h-7.95v9.85h7.95c1.77,0,3.12-.42,4.05-1.27.93-.85,1.4-2.06,1.4-3.63s-.47-2.78-1.42-3.65c-.95-.87-2.29-1.3-4.03-1.3Z"/>
        <path class="cls-1" d="m156.83,155.34h-17.25l-2.6,6.3h-8.75l15.7-35h8.75l15.6,35h-8.85l-2.6-6.3Zm-14.3-7.05h11.4l-5.65-13.8-5.75,13.8Z"/>
        <path class="cls-1" d="m179.93,126.64v35h-8.2v-35h8.2Z"/>
        <path class="cls-1" d="m218.83,126.64v35h-7.35l-15.85-21.65.1,9.45v12.2h-8.15v-35h7.35l15.85,21.75-.1-9.35v-12.4h8.15Z"/>
        <path class="cls-1"
              d="m224.22,157.49l4.25-5.95c3.1,2.43,6.72,3.65,10.85,3.65,2.07,0,3.71-.35,4.92-1.05,1.22-.7,1.83-1.65,1.83-2.85,0-1.13-.57-2.02-1.7-2.65-1.13-.63-2.93-1.08-5.4-1.35-4.77-.53-8.26-1.65-10.48-3.35s-3.33-4.13-3.33-7.3c0-2.13.6-4.02,1.8-5.65,1.2-1.63,2.88-2.9,5.05-3.8s4.67-1.35,7.5-1.35c2.43,0,4.81.35,7.12,1.05,2.32.7,4.36,1.68,6.12,2.95l-3.85,5.75c-2.73-1.9-5.75-2.85-9.05-2.85-2.03,0-3.66.33-4.88,1-1.22.67-1.83,1.57-1.83,2.7s.52,1.95,1.58,2.55c1.05.6,2.81,1.05,5.28,1.35,4.73.53,8.27,1.71,10.6,3.53,2.33,1.82,3.5,4.31,3.5,7.48,0,2.2-.62,4.14-1.85,5.83s-2.97,2.98-5.2,3.9-4.8,1.38-7.7,1.38-5.62-.43-8.28-1.3c-2.65-.87-4.94-2.08-6.88-3.65Z"/>
        <path class="cls-1" d="m81.68,222.04v6.4h-24.25v-6.4h24.25Z"/>
    </g>
</svg>